<!DOCTYPE svg PUBLIC "-//W3C//DTD SVG 1.1//EN" "http://www.w3.org/Graphics/SVG/1.1/DTD/svg11.dtd">

<!-- Uploaded to: SVG Repo, www.svgrepo.com, Transformed by: SVG Repo Mixer Tools -->
<svg width="13px" height="13px" viewBox="0 0 16 16" xmlns:dc="http://purl.org/dc/elements/1.1/" xmlns:cc="http://creativecommons.org/ns#" xmlns:rdf="http://www.w3.org/1999/02/22-rdf-syntax-ns#" xmlns="http://www.w3.org/2000/svg" version="1.1" id="svg7384" fill="#1cb1fe">

<g id="SVGRepo_bgCarrier" stroke-width="0"/>

<g id="SVGRepo_tracerCarrier" stroke-linecap="round" stroke-linejoin="round"/>

<g id="SVGRepo_iconCarrier">

<metadata id="metadata90">

<rdf:rdf>

<cc:work>

<dc:format>image/svg+xml</dc:format>

<dc:type rdf:resource="http://purl.org/dc/dcmitype/StillImage"/>

<dc:title/>

<dc:date>2021</dc:date>

<dc:creator>

<cc:agent>

<dc:title>Timothée Giet</dc:title>

</cc:agent>

</dc:creator>

<cc:license rdf:resource="http://creativecommons.org/licenses/by-sa/4.0/"/>

</cc:work>

<cc:license rdf:about="http://creativecommons.org/licenses/by-sa/4.0/">

<cc:permits rdf:resource="http://creativecommons.org/ns#Reproduction"/>

<cc:permits rdf:resource="http://creativecommons.org/ns#Distribution"/>

<cc:requires rdf:resource="http://creativecommons.org/ns#Notice"/>

<cc:requires rdf:resource="http://creativecommons.org/ns#Attribution"/>

<cc:permits rdf:resource="http://creativecommons.org/ns#DerivativeWorks"/>

<cc:requires rdf:resource="http://creativecommons.org/ns#ShareAlike"/>

</cc:license>

</rdf:rdf>

</metadata>

<path id="rect4082" d="M1 1v14h14V1zm1 1h12v12H2z" style="fill:#1cb1fe;fill-opacity:1;stroke:none;stroke-width:.875"/>

<path id="path847" d="M5 3a2 2 0 0 0-2 2 2 2 0 0 0 2 2 2 2 0 0 0 2-2 2 2 0 0 0-2-2zm0 1a1 1 0 0 1 1 1 1 1 0 0 1-1 1 1 1 0 0 1-1-1 1 1 0 0 1 1-1z" style="opacity:1;vector-effect:none;fill:#1cb1fe;fill-opacity:1;stroke:none;stroke-width:4;stroke-linecap:square;stroke-linejoin:round;stroke-miterlimit:4;stroke-dasharray:none;stroke-dashoffset:3.20000005;stroke-opacity:.55063291"/>

<path id="path869" d="m3 12 1 1 3-3 1 1 2-2 2 2 1-1-3-3-2 2-1-1z" style="fill:#1cb1fe;fill-opacity:1;stroke:none;stroke-width:1px;stroke-linecap:butt;stroke-linejoin:miter;stroke-opacity:1"/>

</g>

</svg>